<svg width="34" height="41" viewBox="0 0 34 41" fill="none" xmlns="http://www.w3.org/2000/svg">
<path d="M13.7478 37.0287V35.2066L20.5314 35.4169L20.6076 37.0287H13.7478Z" fill="#D9D9D9"/>
<path d="M13.7478 35.2066V34.2956L20.379 34.2255L20.5314 35.4169L13.7478 35.2066Z" fill="#A1B1C1"/>
<path d="M9.70807 39.4815V37.6594H23.7327L25.4095 39.5515L9.70807 39.4815Z" fill="#D9D9D9"/>
<path d="M17.1097 0.0968933L3.50968 4.93723L3.29032 5.13891L9.75394 6.99973V11.7271L8.93502 11.754C8.49631 11.754 8.17493 11.7944 6.79999 11.7944C5.70323 11.7944 5.04515 11.7944 4.16773 11.7944C2.4129 11.9961 0.658058 13.0045 1.34909e-05 15.2229C1.37157e-05 20.4666 -1.34035e-05 29.1389 8.64019e-06 30.5507C-1.79142e-05 31.9624 1.31611 34.1809 3.87523 34.5843C8.33547 34.5843 12.0645 34.5843 13.1613 34.5843C13.0735 34.8263 12.8136 36.4935 12.8136 36.9238C12.3423 36.9238 12.5032 36.9238 11.1871 36.9238C9.6516 36.9238 8.77418 37.8112 8.33547 39.0213C8.11612 39.0213 5.48385 39.0213 3.72901 39.0213C3.72901 39.4246 3.72901 39.6129 3.72901 40.0969C4.46913 40.0969 4.07997 40.0969 16.861 40.0969C27.741 40.0969 29.6129 40.0297 30.0516 40.0297C30.0516 39.4246 30.0516 39.6263 30.0516 39.0213C28.2675 39.0213 26.5419 39.0213 25.8839 39.0213C25.4451 37.8112 24.3776 36.9238 23.0322 36.9238C22.0963 36.9238 22.1035 36.9238 21.5488 36.9238C21.5488 36.4935 21.3651 34.8263 21.2774 34.5843C22.1548 34.5843 26.1324 34.5843 30.4903 34.5843C32.0258 34.1809 33.7806 32.9708 34 30.954C34 29.7439 34 23.2364 34 15.2229C33.7806 13.6095 31.8065 11.7944 30.0516 11.7271C28.4723 11.6465 31.046 11.7271 27.5071 11.7271H24.3483V6.8868L27.4194 6.14731V6.55067C27.4194 6.95403 27.4194 7.51873 27.4194 7.82798C26.9806 7.96243 27.4194 7.82798 26.9806 7.96243C26.3226 8.97083 26.3226 9.97924 26.5419 9.97924C27.8581 10.1809 29.1742 9.97924 29.3935 9.77756C29.3935 8.56747 29.3935 8.36579 29.1742 7.96243L28.5161 7.76075V7.15571C28.5161 6.45655 28.5161 6.55067 28.5161 6.14731C28.5161 5.82677 28.5161 6.52378 28.5161 5.74395L30.7828 4.99342L30.4903 4.73555L17.1097 0.0968933ZM22.2425 3.04143L27.2 4.73555V5.13891L22.3742 6.3221L17.329 7.96244C17.329 7.96244 13.6731 6.96748 11.1871 6.3221L6.59523 5.03135L8.6133 4.22462L16.8903 1.40108L22.2425 3.04143ZM23.2516 8.76916L21.7161 9.17253L17.329 10.3826L11.1871 8.76916L11.1871 7.3574L17.33 9.06704L23.237 7.04815L23.2516 8.76916ZM17.329 11.5927L17.3299 11.723L17.33 11.7301L17.3306 11.723L17.329 11.5927L23.3555 9.8298V11.7002H19.9028L17.3306 11.723L17.3299 11.723L13.8193 11.754H11.1871V10.8666V9.8298L17.329 11.5927ZM30.929 13.0986C32.9471 13.9591 32.9763 14.0935 33.064 22.6179C33.181 31.2229 33.0056 32.1372 31.2507 33.1322C30.4025 33.6162 29.6129 33.6431 17.0365 33.6431C4.19695 33.6431 3.69975 33.6162 2.76384 33.1053C1.009 32.1103 0.921257 31.5725 1.009 22.7524C1.09674 15.2229 1.12599 14.8196 1.71093 14.0935C2.79308 12.749 3.31954 12.6952 17.1243 12.6952C28.2675 12.6683 30.0808 12.7221 30.929 13.0986ZM19.9613 34.5843C20.1806 34.9876 20.4 35.9961 20.454 36.9238C19.9253 36.9238 20.2147 36.9238 17.2022 36.9238C14.1898 36.9238 14.9515 36.9238 13.9363 36.9238C13.9363 35.5363 14.0387 35.1893 14.2581 34.5843H17.2022H18.6451H19.9613ZM23.7926 38.2145C25.2258 39.1787 24.1436 39.0213 17.0365 39.0213C9.98792 39.0213 8.99354 39.2229 10.3097 38.2145C11.1871 37.4078 22.5935 37.4078 23.7926 38.2145Z" fill="black"/>
<path d="M17.1097 0.0968933L3.50968 4.93723L3.29032 5.13891L9.75394 6.99973V11.7271L8.93502 11.754C8.49631 11.754 8.17493 11.7944 6.79999 11.7944C5.70323 11.7944 5.04515 11.7944 4.16773 11.7944C2.4129 11.9961 0.658058 13.0045 1.34909e-05 15.2229C1.37157e-05 20.4666 -1.34035e-05 29.1389 8.64019e-06 30.5507C-1.79142e-05 31.9624 1.31611 34.1809 3.87523 34.5843C8.33547 34.5843 12.0645 34.5843 13.1613 34.5843C13.0735 34.8263 12.8136 36.4935 12.8136 36.9238C12.3423 36.9238 12.5032 36.9238 11.1871 36.9238C9.6516 36.9238 8.77418 37.8112 8.33547 39.0213C8.11612 39.0213 5.48385 39.0213 3.72901 39.0213C3.72901 39.4246 3.72901 39.6129 3.72901 40.0969C4.46913 40.0969 4.07997 40.0969 16.861 40.0969C27.741 40.0969 29.6129 40.0297 30.0516 40.0297C30.0516 39.4246 30.0516 39.6263 30.0516 39.0213C28.2675 39.0213 26.5419 39.0213 25.8839 39.0213C25.4451 37.8112 24.3776 36.9238 23.0322 36.9238C22.0963 36.9238 22.1035 36.9238 21.5488 36.9238C21.5488 36.4935 21.3651 34.8263 21.2774 34.5843C22.1548 34.5843 26.1324 34.5843 30.4903 34.5843C32.0258 34.1809 33.7806 32.9708 34 30.954C34 29.7439 34 23.2364 34 15.2229C33.7806 13.6095 31.8065 11.7944 30.0516 11.7271C28.4723 11.6465 31.046 11.7271 27.5071 11.7271H24.3483V6.8868L27.4194 6.14731V6.55067C27.4194 6.95403 27.4194 7.51873 27.4194 7.82798C26.9806 7.96243 27.4194 7.82798 26.9806 7.96243C26.3226 8.97083 26.3226 9.97924 26.5419 9.97924C27.8581 10.1809 29.1742 9.97924 29.3935 9.77756C29.3935 8.56747 29.3935 8.36579 29.1742 7.96243L28.5161 7.76075V7.15571C28.5161 6.45655 28.5161 6.55067 28.5161 6.14731C28.5161 5.82677 28.5161 6.52378 28.5161 5.74395L30.7828 4.99342L30.4903 4.73555L17.1097 0.0968933ZM22.2425 3.04143L27.2 4.73555V5.13891L22.3742 6.3221L17.329 7.96244C17.329 7.96244 13.6731 6.96748 11.1871 6.3221L6.59523 5.03135L8.6133 4.22462L16.8903 1.40108L22.2425 3.04143ZM23.2516 8.76916L21.7161 9.17253L17.329 10.3826L11.1871 8.76916L11.1871 7.3574L17.33 9.06704L23.237 7.04815L23.2516 8.76916ZM17.329 11.5927L17.3299 11.723L17.33 11.7301L17.3306 11.723L17.329 11.5927L23.3555 9.8298V11.7002H19.9028L17.3306 11.723L17.3299 11.723L13.8193 11.754H11.1871V10.8666V9.8298L17.329 11.5927ZM30.929 13.0986C32.9471 13.9591 32.9763 14.0935 33.064 22.6179C33.181 31.2229 33.0056 32.1372 31.2507 33.1322C30.4025 33.6162 29.6129 33.6431 17.0365 33.6431C4.19695 33.6431 3.69975 33.6162 2.76384 33.1053C1.009 32.1103 0.921257 31.5725 1.009 22.7524C1.09674 15.2229 1.12599 14.8196 1.71093 14.0935C2.79308 12.749 3.31954 12.6952 17.1243 12.6952C28.2675 12.6683 30.0808 12.7221 30.929 13.0986ZM19.9613 34.5843C20.1806 34.9876 20.4 35.9961 20.454 36.9238C19.9253 36.9238 20.2147 36.9238 17.2022 36.9238C14.1898 36.9238 14.9515 36.9238 13.9363 36.9238C13.9363 35.5363 14.0387 35.1893 14.2581 34.5843H17.2022H18.6451H19.9613ZM23.7926 38.2145C25.2258 39.1787 24.1436 39.0213 17.0365 39.0213C9.98792 39.0213 8.99354 39.2229 10.3097 38.2145C11.1871 37.4078 22.5935 37.4078 23.7926 38.2145Z" fill="black" fill-opacity="0.2"/>
<path d="M30.929 13.0986C32.9471 13.9591 32.9763 14.0935 33.064 22.6179C33.181 31.2229 33.0056 32.1372 31.2507 33.1322C30.4025 33.6162 29.6129 33.6431 17.0365 33.6431C4.19695 33.6431 3.69975 33.6162 2.76384 33.1053C1.009 32.1103 0.921257 31.5725 1.009 22.7524C1.09674 15.2229 1.12599 14.8196 1.71093 14.0935C2.79308 12.749 3.31954 12.6952 17.1243 12.6952C28.2675 12.6683 30.0808 12.7221 30.929 13.0986Z" fill="black"/>
<path d="M30.929 13.0986C32.9471 13.9591 32.9763 14.0935 33.064 22.6179C33.181 31.2229 33.0056 32.1372 31.2507 33.1322C30.4025 33.6162 29.6129 33.6431 17.0365 33.6431C4.19695 33.6431 3.69975 33.6162 2.76384 33.1053C1.009 32.1103 0.921257 31.5725 1.009 22.7524C1.09674 15.2229 1.12599 14.8196 1.71093 14.0935C2.79308 12.749 3.31954 12.6952 17.1243 12.6952C28.2675 12.6683 30.0808 12.7221 30.929 13.0986Z" fill="#FDFEFF"/>
<path d="M17.329 7.96244C17.329 7.96244 13.6731 6.96748 11.1871 6.3221L6.59523 5.03135L8.6133 4.22462L16.8903 1.40108L17.329 7.96244Z" fill="#7BA2C9"/>
<path d="M17.329 7.96244C17.329 7.96244 13.6731 6.96748 11.1871 6.3221L6.59523 5.03135L8.6133 4.22462L16.8903 1.40108L17.329 7.96244Z" fill="black" fill-opacity="0.2"/>
<path d="M22.2425 3.04143L27.2 4.73555V5.13891L22.3742 6.3221L17.329 7.96244L16.8903 1.40108L22.2425 3.04143Z" fill="black"/>
<path d="M22.2425 3.04143L27.2 4.73555V5.13891L22.3742 6.3221L17.329 7.96244L16.8903 1.40108L22.2425 3.04143Z" fill="#405A73"/>
<path d="M17.329 10.3826L11.1871 8.76916L11.1871 7.3574L17.33 9.06704L17.329 10.3826Z" fill="#7BA2C9"/>
<path d="M17.329 10.3826L11.1871 8.76916L11.1871 7.3574L17.33 9.06704L17.329 10.3826Z" fill="black" fill-opacity="0.2"/>
<path d="M23.2516 8.76916L21.7161 9.17253L17.329 10.3826L17.33 9.06704L23.237 7.04815L23.2516 8.76916Z" fill="#405A73"/>
<path d="M23.2516 8.76916L21.7161 9.17253L17.329 10.3826L17.33 9.06704L23.237 7.04815L23.2516 8.76916Z" fill="black" fill-opacity="0.2"/>
<path d="M17.3299 11.723L13.8193 11.754H11.1871V10.8666V9.8298L17.329 11.5927L17.3299 11.723Z" fill="#7BA2C9"/>
<path d="M17.3299 11.723L13.8193 11.754H11.1871V10.8666V9.8298L17.329 11.5927L17.3299 11.723Z" fill="black" fill-opacity="0.2"/>
<path d="M23.3555 9.8298V11.7002H19.9028L17.3306 11.723L17.329 11.5927L23.3555 9.8298Z" fill="#405A73"/>
<path d="M23.3555 9.8298V11.7002H19.9028L17.3306 11.723L17.329 11.5927L23.3555 9.8298Z" fill="black" fill-opacity="0.2"/>
<path d="M4.80606 16.3742L5.05854 27.3577H6.12563C6.12563 27.3577 6.23918 16.6163 5.97595 16.2129C5.65423 15.7826 5.01079 15.8633 4.80606 16.3742Z" fill="#6EA5E5"/>
<path d="M13.2904 17.552L13.6054 19.4388H14.9369C14.9369 19.4388 15.0785 17.5936 14.7501 17.5243C14.3487 17.4504 13.5459 17.4643 13.2904 17.552Z" fill="#60A7E7"/>
<path d="M17.8634 24.2581L18.4648 25.6058H21.0066C21.0066 25.6058 21.2771 24.2878 20.6501 24.2383C19.8838 24.1855 18.3511 24.1954 17.8634 24.2581Z" fill="#60A7E7"/>
<path d="M16.1868 25.94L16.645 27.2877H18.5816C18.5816 27.2877 18.7877 25.9697 18.31 25.9202C17.7261 25.8674 16.5583 25.8773 16.1868 25.94Z" fill="#60A7E7"/>
<path d="M3.05902 14.4909C2.92283 14.5743 2.80862 14.6892 2.72595 14.8259L2.50207 15.196L2.29351 15.6234C2.22781 15.7581 2.1932 15.9058 2.19224 16.0556L2.14978 22.6851L2.14981 28.8784C2.14981 29.4307 2.59753 29.8784 3.14981 29.8784H17.0952H31.3684C31.6908 29.8784 31.9238 29.5701 31.8358 29.2599C31.7481 28.9372 31.6603 25.6028 31.6603 21.865C31.6603 15.4381 31.6311 15.0616 31.0754 14.5507C30.5197 14.0397 30.1102 14.0129 17.0952 14.0129L4.31769 14.0128C4.21837 14.0128 4.11962 14.0276 4.02466 14.0567L3.63118 14.1773C3.5506 14.202 3.47346 14.2368 3.40161 14.2809L3.05902 14.4909ZM7.13924 14.9958C7.21345 15.0262 7.26215 15.1009 7.2507 15.1803C7.23144 15.3138 7.12178 15.4852 6.94637 15.6263C6.59541 15.8952 6.41992 15.8952 6.03971 15.5994C5.63024 15.3036 5.45476 15.3305 4.89906 15.949C4.22637 16.675 4.22637 16.7826 4.28487 21.8112C4.37261 26.6515 4.40186 27.0011 4.9868 27.5389C5.35493 27.862 5.90556 27.862 6.27369 27.5389C6.88788 27.0011 7.00487 27.0011 7.53132 27.3507C7.85304 27.5927 8.64272 27.7271 9.28616 27.7003C9.9296 27.6734 10.807 27.754 11.2457 27.8616C11.6844 27.9692 12.4449 27.9154 12.9421 27.7809C13.527 27.5658 13.878 27.5658 13.995 27.7809C14.112 27.9423 14.6384 27.9692 15.2526 27.8885C17.1244 27.5927 18.6453 27.5389 19.1133 27.754C19.7567 28.0498 23.9098 28.0229 25.0797 27.7271C25.2552 27.6734 25.7231 27.7271 26.1911 27.8347C26.6883 27.9692 27.127 27.9423 27.3902 27.754C27.595 27.5927 28.1799 27.5389 28.6479 27.6196C29.2328 27.7271 29.6715 27.6465 29.964 27.3507C30.3735 26.9742 30.4612 26.9742 30.6074 27.3507C30.9292 28.1036 30.2565 28.8028 29.2328 28.8028C21.1313 28.9372 5.25003 28.9103 4.46035 28.8028L4.29763 28.7814C3.80378 28.7165 3.43295 28.2981 3.42791 27.8L3.3782 22.8868C3.31971 16.1372 3.3782 15.5187 4.19713 15.196C4.94103 14.8785 6.67441 14.805 7.13924 14.9958ZM30.2565 15.3036C30.5197 15.5456 30.6659 16.9439 30.7244 20.386C30.7829 22.9944 30.7537 25.4145 30.6367 25.7641C30.4905 26.3557 30.4612 26.3826 29.7593 25.9524C29.1743 25.6028 28.9403 25.5759 28.5894 25.8448C28.2384 26.1137 28.0629 26.1137 27.712 25.8448C27.4487 25.6297 26.8638 25.5759 26.1619 25.6566C25.5769 25.7641 24.9042 25.7103 24.6702 25.6028C24.407 25.4414 24.056 25.4683 23.7343 25.6566C23.3249 25.8986 23.1201 25.8986 22.8277 25.6297C22.6522 25.4683 22.1842 25.307 21.8333 25.307C20.9851 25.307 20.6926 24.8767 21.1313 24.3658C21.3945 24.07 21.6285 24.0431 22.0672 24.2582C22.5352 24.5002 22.7692 24.4465 23.2371 24.0162C24.0853 23.2633 23.5296 22.349 22.2135 22.349C20.4668 22.349 18.8637 22.2169 18.4229 22.0722C18.3534 22.0494 18.2966 21.9983 18.2745 21.9286C18.2301 21.7891 18.2327 21.5688 18.3236 21.3809C18.4406 21.0851 18.7038 21.0045 19.201 21.112C19.7567 21.2465 20.0784 21.0851 20.6341 20.4666C21.2776 19.7675 21.6285 19.6599 23.2371 19.5255C26.0156 19.3372 27.361 19.0414 27.478 18.5843C27.595 18.2347 27.5657 18.2347 27.3317 18.5574C27.1563 18.7725 26.8345 18.8532 26.5421 18.7725C25.9864 18.5574 26.2203 18.0465 26.8638 18.0465C27.0978 18.0465 27.2148 17.912 27.127 17.7776C27.01 17.6162 26.6591 17.5624 26.3666 17.6431C26.0449 17.7507 25.6062 17.6969 25.4014 17.5355C25.1967 17.3742 24.1438 17.186 23.0324 17.1322C21.2191 17.0246 20.9851 16.9439 20.2539 16.1103C19.552 15.3574 19.3472 15.2767 18.8793 15.5187C18.4991 15.7339 18.1481 15.7608 17.7971 15.5725C17.5339 15.4381 17.0952 15.3843 16.8612 15.465C16.598 15.5456 16.0423 15.5456 15.6328 15.4381C15.4527 15.3951 15.4594 15.1365 15.6416 15.103L15.7206 15.0885C16.1885 15.0078 19.5812 14.954 23.2371 14.954C28.2969 14.954 29.964 15.0347 30.2565 15.3036ZM5.98121 16.8902C6.01046 17.3204 6.03971 19.7944 6.06895 22.4028C6.06895 26.786 6.03971 27.1893 5.57175 27.1893C5.07455 27.1893 5.0453 26.7591 5.0453 21.865C5.0453 19.2021 5.11772 16.8943 5.2187 16.4338C5.23132 16.3762 5.27029 16.3303 5.31559 16.2925C5.66354 16.0026 5.92613 16.2318 5.98121 16.8902ZM10.2513 16.6213C10.3391 16.8633 9.90035 16.9708 8.73046 16.9708C7.44358 16.9708 7.09261 16.8902 7.09261 16.5406C7.09261 16.2179 7.38508 16.1641 8.61347 16.2179C9.49089 16.2717 10.1636 16.433 10.2513 16.6213ZM13.2345 16.5675C13.2345 16.8364 12.9128 16.9708 12.2109 16.9708C11.509 16.9708 11.1872 16.8364 11.1872 16.5675C11.1872 16.2986 11.509 16.1641 12.2109 16.1641C12.9128 16.1641 13.2345 16.2986 13.2345 16.5675ZM15.8668 16.5675C15.8668 16.8364 15.5743 16.9708 14.9894 16.9708C14.1412 16.9708 13.878 16.7288 14.3167 16.3523C14.6969 16.0028 15.8668 16.1641 15.8668 16.5675ZM17.7094 16.7019C17.5339 17.2935 17.1829 17.4011 16.8905 16.9708C16.6565 16.6213 16.9782 16.1641 17.4754 16.1641C17.7094 16.1641 17.7971 16.3523 17.7094 16.7019ZM14.9309 18.396C14.9894 18.6918 14.8431 18.8532 14.4337 18.8532C13.7025 18.8532 13.3223 18.3423 13.8487 18.0196C14.4044 17.6969 14.8139 17.8582 14.9309 18.396ZM25.1382 18.1809C25.3429 18.7187 25.0797 18.9608 24.524 18.7725C24.2608 18.665 24.1438 18.4229 24.2315 18.1809C24.4655 17.67 24.9042 17.67 25.1382 18.1809ZM10.8948 18.4767C10.8948 18.7994 10.6023 18.8532 9.3739 18.7994C7.2096 18.6918 7.12186 18.0465 9.25691 18.0465C10.5438 18.0465 10.8948 18.1271 10.8948 18.4767ZM19.318 18.3692C19.2302 18.5843 18.616 18.7187 17.6216 18.7187C16.7531 18.7187 16.1746 18.6162 16.0031 18.4468C15.9592 18.4035 15.9259 18.3394 15.9399 18.2794C15.9801 18.1067 16.484 18.0465 17.6216 18.0465C18.9378 18.0465 19.4057 18.1271 19.318 18.3692ZM23.4126 18.3692C23.3249 18.5843 22.7399 18.7187 21.8625 18.7187C21.097 18.7187 20.5542 18.6164 20.3893 18.4475C20.3462 18.4034 20.3139 18.34 20.3252 18.2795C20.3575 18.1068 20.8258 18.0465 21.8625 18.0465C23.0616 18.0465 23.5003 18.1271 23.4126 18.3692ZM11.9184 20.0633C11.9184 20.386 10.456 20.5742 9.84186 20.3591C9.57863 20.2784 9.49089 20.0633 9.57863 19.9288C9.81261 19.5524 11.9184 19.6868 11.9184 20.0633ZM18.4991 20.0633C18.4991 20.2784 17.7971 20.386 16.4517 20.4129C14.8431 20.4397 14.4044 20.3591 14.4044 20.0633C14.4044 19.7675 14.8431 19.6868 16.4517 19.7137C17.7971 19.7406 18.4991 19.875 18.4991 20.0633ZM10.3098 21.6767C10.3098 21.9725 9.95885 22.0801 8.99369 22.0801C8.02852 22.0801 7.67756 21.9725 7.67756 21.6767C7.67756 21.3809 8.02852 21.2734 8.99369 21.2734C9.95885 21.2734 10.3098 21.3809 10.3098 21.6767ZM13.9574 21.6434C14.0317 21.689 14.0827 21.7833 14.036 21.8568C13.9384 22.0103 13.5267 22.0801 12.6788 22.0801C11.5382 22.0801 11.1872 21.9725 11.1872 21.6498C11.1872 21.3271 11.4797 21.2734 12.5619 21.3271C13.188 21.3714 13.7349 21.5069 13.9574 21.6434ZM17.224 21.6665C17.2622 21.7032 17.2833 21.7572 17.2755 21.8096C17.2475 21.9961 16.9121 22.0801 16.1885 22.0801C15.0479 22.0801 14.5214 21.8112 14.9016 21.4347C15.2307 21.1574 16.8969 21.3528 17.224 21.6665ZM11.4797 23.2902C11.4797 23.6129 11.0702 23.6935 9.57863 23.6935C7.88943 23.6935 7.41974 23.544 7.83044 23.1251C7.86385 23.091 7.89854 23.0562 7.94304 23.039C8.17321 22.9499 8.9554 22.8868 9.78336 22.8868C11.0995 22.8868 11.4797 22.9675 11.4797 23.2902ZM16.1008 23.3439C16.1885 23.6129 15.6913 23.6935 14.2874 23.6935C12.7373 23.6935 12.3571 23.6129 12.3571 23.2902C12.3571 22.9406 12.7081 22.8868 14.1705 22.9406C15.2819 22.9944 16.013 23.1557 16.1008 23.3439ZM18.6902 23.2772C18.725 23.3173 18.7445 23.3702 18.7404 23.4231C18.7259 23.6096 18.4602 23.6935 17.9434 23.6935C17.0659 23.6935 16.598 23.3977 16.9489 23.0481C17.2497 22.7716 18.4197 22.9651 18.6902 23.2772ZM21.1313 23.2902C21.1313 23.5591 20.8388 23.6935 20.2539 23.6935C19.4057 23.6935 19.1425 23.4515 19.5812 23.075C19.9614 22.7255 21.1313 22.8868 21.1313 23.2902ZM8.2625 25.1994C8.2625 25.3876 7.99928 25.6834 7.7068 25.8179C7.03412 26.1675 6.80014 25.7641 7.00487 24.6616C7.1511 23.9624 7.18035 23.9624 7.7068 24.3927C8.02852 24.6347 8.2625 25.0112 8.2625 25.1994ZM13.3515 24.9036C13.4685 25.2263 13.2345 25.307 12.2109 25.307C11.1872 25.307 10.9533 25.2263 11.0702 24.9036C11.1872 24.6616 11.6259 24.5003 12.2109 24.5003C12.7958 24.5003 13.2345 24.6616 13.3515 24.9036ZM16.3483 24.8921C16.3851 24.9303 16.4059 24.9841 16.398 25.0365C16.3701 25.223 16.0346 25.307 15.3111 25.307C14.1705 25.307 13.8487 25.0918 14.3167 24.6616C14.6179 24.3846 16.0476 24.5792 16.3483 24.8921ZM20.4451 24.8906C20.4798 24.9307 20.4999 24.9838 20.4939 25.0365C20.4727 25.223 20.1721 25.307 19.552 25.307C18.5576 25.307 18.2651 25.0918 18.7038 24.6616C19.0046 24.385 20.1746 24.5786 20.4451 24.8906ZM18.0603 26.6784C18.0603 26.8666 17.8264 27.0818 17.5631 27.1355C17.0367 27.2162 16.832 26.6515 17.2414 26.275C17.5339 26.0061 18.0603 26.2481 18.0603 26.6784ZM22.7984 26.7322C22.6522 27.1355 19.6982 27.3238 19.2887 26.9473C18.7623 26.4633 19.3472 26.2481 21.1313 26.3288C22.3012 26.4095 22.8862 26.5439 22.7984 26.7322ZM24.875 26.7322C24.9335 27.0549 24.7872 27.1893 24.3778 27.1893C24.0268 27.1893 23.7636 27.028 23.7636 26.8397C23.7636 26.0061 24.6995 25.9255 24.875 26.7322ZM27.3025 26.3826C27.4487 26.3826 27.5657 26.5708 27.5657 26.786C27.5657 27.2431 26.2496 27.3507 25.9571 26.9204C25.6939 26.5171 26.1034 26.0599 26.6006 26.2213C26.8345 26.3019 27.1563 26.3826 27.3025 26.3826ZM29.496 26.4095C29.73 26.786 29.1743 27.2969 28.7649 27.0818C28.4431 26.8935 28.6479 26.1137 29.0281 26.1137C29.1743 26.1137 29.3791 26.2481 29.496 26.4095ZM10.0173 26.7591C10.0173 27.0549 9.72487 27.1355 8.93519 27.1087C7.41433 27.0011 7.29734 26.3826 8.8182 26.3826C9.66637 26.3826 10.0173 26.4902 10.0173 26.7591ZM12.9421 26.8129C12.9421 27.1087 12.7081 27.1893 12.0062 27.1355C10.6608 27.028 10.573 26.3826 11.8892 26.3826C12.6496 26.3826 12.9421 26.4902 12.9421 26.8129ZM16.1024 26.6208C16.1178 26.6756 16.0908 26.7338 16.0501 26.7737C15.8895 26.931 15.4507 27.0549 14.9894 27.0549C14.4629 27.0549 13.9657 26.8935 13.9072 26.7053C13.8195 26.4902 14.1412 26.3826 14.9894 26.3826C15.718 26.3826 16.0581 26.462 16.1024 26.6208Z" fill="black"/>
<path d="M7.13924 14.9958C7.21345 15.0262 7.26215 15.1009 7.2507 15.1803C7.23144 15.3138 7.12178 15.4852 6.94637 15.6263C6.59541 15.8952 6.41992 15.8952 6.03971 15.5994C5.63024 15.3036 5.45476 15.3305 4.89906 15.949C4.22637 16.675 4.22637 16.7826 4.28487 21.8112C4.37261 26.6515 4.40186 27.0011 4.9868 27.5389C5.35493 27.862 5.90556 27.862 6.27369 27.5389C6.88788 27.0011 7.00487 27.0011 7.53132 27.3507C7.85304 27.5927 8.64272 27.7271 9.28616 27.7003C9.9296 27.6734 10.807 27.754 11.2457 27.8616C11.6844 27.9692 12.4449 27.9154 12.9421 27.7809C13.527 27.5658 13.878 27.5658 13.995 27.7809C14.112 27.9423 14.6384 27.9692 15.2526 27.8885C17.1244 27.5927 18.6453 27.5389 19.1133 27.754C19.7567 28.0498 23.9098 28.0229 25.0797 27.7271C25.2552 27.6734 25.7231 27.7271 26.1911 27.8347C26.6883 27.9692 27.127 27.9423 27.3902 27.754C27.595 27.5927 28.1799 27.5389 28.6479 27.6196C29.2328 27.7271 29.6715 27.6465 29.964 27.3507C30.3735 26.9742 30.4612 26.9742 30.6074 27.3507C30.9292 28.1036 30.2565 28.8028 29.2328 28.8028C21.1313 28.9372 5.25003 28.9103 4.46035 28.8028L4.29763 28.7814C3.80378 28.7165 3.43295 28.2981 3.42791 27.8L3.3782 22.8868C3.31971 16.1372 3.3782 15.5187 4.19713 15.196C4.94103 14.8785 6.67441 14.805 7.13924 14.9958Z" fill="black"/>
<path d="M30.2565 15.3036C30.5197 15.5456 30.6659 16.9439 30.7244 20.386C30.7829 22.9944 30.7537 25.4145 30.6367 25.7641C30.4905 26.3557 30.4612 26.3826 29.7593 25.9524C29.1743 25.6028 28.9403 25.5759 28.5894 25.8448C28.2384 26.1137 28.0629 26.1137 27.712 25.8448C27.4487 25.6297 26.8638 25.5759 26.1619 25.6566C25.5769 25.7641 24.9042 25.7103 24.6702 25.6028C24.407 25.4414 24.056 25.4683 23.7343 25.6566C23.3249 25.8986 23.1201 25.8986 22.8277 25.6297C22.6522 25.4683 22.1842 25.307 21.8333 25.307C20.9851 25.307 20.6926 24.8767 21.1313 24.3658C21.3945 24.07 21.6285 24.0431 22.0672 24.2582C22.5352 24.5002 22.7692 24.4465 23.2371 24.0162C24.0853 23.2633 23.5296 22.349 22.2135 22.349C20.4668 22.349 18.8637 22.2169 18.4229 22.0722C18.3534 22.0494 18.2966 21.9983 18.2745 21.9286C18.2301 21.7891 18.2327 21.5688 18.3236 21.3809C18.4406 21.0851 18.7038 21.0045 19.201 21.112C19.7567 21.2465 20.0784 21.0851 20.6341 20.4666C21.2776 19.7675 21.6285 19.6599 23.2371 19.5255C26.0156 19.3372 27.361 19.0414 27.478 18.5843C27.595 18.2347 27.5657 18.2347 27.3317 18.5574C27.1563 18.7725 26.8345 18.8532 26.5421 18.7725C25.9864 18.5574 26.2203 18.0465 26.8638 18.0465C27.0978 18.0465 27.2148 17.912 27.127 17.7776C27.01 17.6162 26.6591 17.5624 26.3666 17.6431C26.0449 17.7507 25.6062 17.6969 25.4014 17.5355C25.1967 17.3742 24.1438 17.186 23.0324 17.1322C21.2191 17.0246 20.9851 16.9439 20.2539 16.1103C19.552 15.3574 19.3472 15.2767 18.8793 15.5187C18.4991 15.7339 18.1481 15.7608 17.7971 15.5725C17.5339 15.4381 17.0952 15.3843 16.8612 15.465C16.598 15.5456 16.0423 15.5456 15.6328 15.4381C15.4527 15.3951 15.4594 15.1365 15.6416 15.103L15.7206 15.0885C16.1885 15.0078 19.5812 14.954 23.2371 14.954C28.2969 14.954 29.964 15.0347 30.2565 15.3036Z" fill="black"/>
<path d="M16.4517 31.3305C15.662 32.2179 16.9782 33.2666 17.8556 32.4599C18.2358 32.1103 18.265 31.9221 18.0311 31.5456C17.5924 30.9271 16.9197 30.8465 16.4517 31.3305Z" fill="black"/>
<path d="M23.5588 31.6532C23.3248 32.2179 23.939 32.7826 24.3777 32.3792C24.7579 32.0297 24.5239 31.2229 24.056 31.2229C23.8805 31.2229 23.6758 31.4112 23.5588 31.6532Z" fill="black"/>
<path d="M26.1325 31.5994C25.8985 31.8683 25.9277 32.0565 26.2787 32.3255C26.6589 32.6212 26.7759 32.5944 27.0099 32.2717C27.3608 31.7339 27.3316 31.5725 26.8636 31.4112C26.6297 31.3305 26.3079 31.4112 26.1325 31.5994Z" fill="black"/>
<path d="M28.5307 31.6532C28.2967 32.2179 28.9109 32.7826 29.3496 32.3792C29.7298 32.0297 29.4958 31.2229 29.0279 31.2229C28.8524 31.2229 28.6477 31.4112 28.5307 31.6532Z" fill="black"/>
</svg>
